<?xml version="1.0" encoding="UTF-8"?>
<svg id="Capa_2" data-name="Capa 2" xmlns="http://www.w3.org/2000/svg" viewBox="0 0 128 128">
  <defs>
    <style>
      .cls-1 { fill: #111827; } /* Gris oscuro corporativo */
      .cls-2 { fill: #10B981; } /* Verde Esmeralda corporativo */
    </style>
  </defs>
  <path class="cls-1" d="m64,125.12c-.78,0-1.54-.15-2.26-.45-2.45-.98-61.74-25.04-61.74-88.66V13.88c0-1.53.86-2.92,2.23-3.6,15.75-7.79,43.34-10.28,60.67-10.28s44.92,2.49,60.67,10.28c1.37.68,2.23,2.07,2.23,3.6v22.13c0,63.62-59.29,87.68-61.74,88.66-.72.3-1.48.45-2.26.45Z"/>
  <path class="cls-2" d="m87.97,44.22h-13.6c1.23,3.75,2.18,7.91,2.83,12.43.1.72.18,1.45.24,2.2h10.53c1.6,0,2.89,1.29,2.89,2.89s-1.29,2.89-2.89,2.89h-9.97c-.3,3.31-.83,6.59-1.57,9.78-.34,1.46-.74,2.89-1.2,4.3h12.74c1.6,0,2.89,1.29,2.89,2.89s-1.29,2.89-2.89,2.89h-15.54c-1.39,3.72-3.14,7.24-5.23,10.49-1.56,2.42-3.34,4.64-5.3,6.61,1.06,1.05,2.26,2.01,3.58,2.88.94.61,2.06.94,3.17.94,2.69,0,5.32-1.92,6.01-4.7,1.83-7.29,2.77-14.86,2.77-22.5,0-.81-.01-1.63-.03-2.44,1.81-2.92,3.39-6.04,4.67-9.35,1.75-4.43,2.94-9.06,3.54-13.73,1.38-1.59,2.56-3.36,3.47-5.32h5.72c1.6,0,2.89-1.29,2.89-2.89s-1.29-2.89-2.89-2.89Zm-23.97,29.38c.67,0,1.35-.12,2-.37.95-.35,1.6-.96,2.06-1.78,1.35-2.42,2.44-5,3.22-7.72,1.25-4.32,1.89-8.79,1.89-13.27,0-.82-.01-1.65-.03-2.47-.02-.5-.12-1-.31-1.48l-.02-.05s-2.08-.22-2.08-.22c-.93.41-1.57,1.09-2.01,1.96-.86,1.73-1.55,3.56-2.05,5.47-.94,3.59-1.42,7.28-1.42,10.97,0,3.36.38,6.67,1.13,9.83.25,1.06.87,1.87,1.73,2.24.63.27,1.31.41,2,.41Z"/>
</svg>
